<svg xmlns="http://www.w3.org/2000/svg" width="512" height="420" viewBox="0 0 512 420">
<g>
<path d="M 0.00 0.00 L 512.00 0.00 L 512.00 420.00 L 0.00 420.00 ZM 256.45 356.59 C261.20,358.66 268.86,358.27 273.87,355.71 C277.57,353.82 278.89,352.23 282.49,345.35 C284.83,340.88 287.30,334.81 287.99,331.86 C288.67,328.91 289.78,325.60 290.46,324.50 C291.14,323.40 292.68,319.12 293.88,315.00 C295.08,310.88 296.91,305.70 297.94,303.50 C298.97,301.30 300.76,296.29 301.90,292.37 C303.05,288.45 304.85,284.17 305.90,282.87 L 307.82 280.50 L 359.33 280.17 C393.68,279.95 411.48,280.19 412.78,280.88 C415.69,282.44 419.25,290.49 425.66,310.00 C436.87,344.08 442.53,354.57 451.06,357.02 C458.94,359.28 465.40,357.87 470.87,352.69 C476.83,347.05 478.47,339.98 475.60,332.27 C474.83,330.20 473.86,327.60 473.45,326.50 C473.03,325.40 471.15,320.23 469.25,315.00 C465.19,303.78 460.81,291.81 454.98,276.00 C452.65,269.67 449.86,261.80 448.78,258.50 C447.71,255.20 445.78,250.02 444.51,247.00 C439.71,235.64 434.00,220.41 434.00,218.98 C434.00,218.17 432.72,214.80 431.17,211.50 C429.61,208.20 428.00,204.15 427.59,202.50 C427.18,200.85 426.23,198.15 425.48,196.50 C424.72,194.85 423.23,191.02 422.15,188.00 C420.18,182.45 417.49,175.30 412.57,162.50 C411.08,158.65 409.29,153.44 408.57,150.92 C407.86,148.40 406.57,145.25 405.72,143.92 C404.87,142.59 403.49,139.18 402.66,136.34 C401.16,131.18 400.49,129.89 394.42,120.50 C388.24,110.95 379.22,104.57 368.74,102.36 C359.35,100.37 352.97,101.14 343.80,105.38 C331.50,111.06 325.26,119.50 317.10,141.50 C314.24,149.20 311.25,156.91 310.46,158.64 C309.66,160.36 307.50,165.99 305.64,171.14 C303.78,176.29 299.48,187.93 296.08,197.00 C292.67,206.07 289.43,215.07 288.88,217.00 C288.33,218.93 287.27,221.85 286.53,223.50 C284.13,228.84 278.00,244.93 278.00,245.88 C278.00,246.39 277.14,248.54 276.08,250.66 C275.03,252.77 273.50,256.52 272.68,259.00 C270.95,264.22 266.07,277.47 258.33,298.00 C255.32,305.98 251.76,315.80 250.41,319.83 C249.07,323.86 247.30,328.45 246.48,330.03 C245.62,331.69 245.00,335.60 245.00,339.31 C245.00,345.41 245.20,345.95 249.20,350.49 C251.51,353.12 254.78,355.86 256.45,356.59 ZM 125.00 362.94 C131.88,363.35 139.52,363.55 142.00,363.38 C159.06,362.19 162.91,361.67 166.95,359.99 C169.45,358.95 173.41,357.61 175.74,357.01 C178.08,356.42 182.35,354.54 185.24,352.85 C188.13,351.16 191.03,349.49 191.67,349.14 C201.87,343.55 216.70,328.80 222.43,318.55 C227.53,309.44 228.09,303.75 224.59,296.60 C219.06,285.30 207.82,281.72 198.35,288.25 C191.93,292.68 190.43,294.24 187.96,299.07 C185.28,304.33 172.00,317.39 167.73,318.96 C165.95,319.62 162.69,320.97 160.47,321.96 C153.08,325.26 146.03,326.23 132.49,325.80 C120.15,325.41 119.05,325.20 110.50,321.59 C98.20,316.40 91.99,311.67 84.18,301.57 C78.84,294.65 71.01,279.91 70.98,276.71 C70.97,275.49 70.07,272.55 68.99,270.17 C64.91,261.18 63.19,226.75 65.73,205.00 C68.85,178.23 84.17,153.39 103.50,143.75 C110.39,140.31 126.08,136.71 134.50,136.63 C144.46,136.54 158.90,140.27 166.96,145.01 C174.00,149.15 184.77,159.59 189.90,167.23 C198.33,179.80 214.76,180.47 222.95,168.58 C227.40,162.11 227.15,157.20 221.86,146.96 C218.45,140.37 215.86,137.16 207.26,128.96 C198.09,120.20 190.83,115.01 180.00,109.43 C164.00,101.20 139.44,98.16 115.79,101.48 C83.23,106.05 56.83,125.21 39.99,156.49 C34.36,166.95 31.01,177.03 27.37,194.50 C23.99,210.68 23.81,212.51 23.72,232.50 C23.63,250.99 23.87,254.40 25.73,261.00 C26.88,265.12 28.32,271.16 28.91,274.42 C30.10,280.93 34.79,294.41 38.85,303.00 C45.99,318.11 61.89,337.40 74.00,345.65 C79.31,349.27 94.15,357.00 95.79,357.00 C96.42,357.00 100.44,358.17 104.72,359.59 C110.48,361.52 115.74,362.38 125.00,362.94 ZM 399.44 241.65 C398.11,243.74 324.39,244.25 322.32,242.18 C321.59,241.45 321.00,240.55 321.00,240.18 C321.00,239.24 327.90,219.66 332.51,207.50 C334.60,202.00 338.01,192.77 340.10,187.00 C354.84,146.26 358.31,139.79 362.91,144.51 C364.98,146.64 370.60,157.29 372.01,161.78 C372.49,163.27 374.53,169.00 376.55,174.50 C378.57,180.00 381.33,187.88 382.69,192.00 C384.05,196.12 385.60,200.42 386.14,201.55 C387.18,203.72 391.79,216.45 395.17,226.50 C396.28,229.80 397.91,234.23 398.79,236.34 C399.85,238.89 400.07,240.67 399.44,241.65 Z" fill="rgb(17,17,17)"/>
<path d="M 256.45 356.59 C254.78,355.86 251.51,353.12 249.20,350.49 C245.20,345.95 245.00,345.41 245.00,339.31 C245.00,335.60 245.62,331.69 246.48,330.03 C247.30,328.45 249.07,323.86 250.41,319.83 C251.76,315.80 255.32,305.98 258.33,298.00 C266.07,277.47 270.95,264.22 272.68,259.00 C273.50,256.52 275.03,252.77 276.08,250.66 C277.14,248.54 278.00,246.39 278.00,245.88 C278.00,244.93 284.13,228.84 286.53,223.50 C287.27,221.85 288.33,218.93 288.88,217.00 C289.43,215.07 292.67,206.07 296.08,197.00 C299.48,187.93 303.78,176.29 305.64,171.14 C307.50,165.99 309.66,160.36 310.46,158.64 C311.25,156.91 314.24,149.20 317.10,141.50 C325.26,119.50 331.50,111.06 343.80,105.38 C352.97,101.14 359.35,100.37 368.74,102.36 C379.22,104.57 388.24,110.95 394.42,120.50 C400.49,129.89 401.16,131.18 402.66,136.34 C403.49,139.18 404.87,142.59 405.72,143.92 C406.57,145.25 407.86,148.40 408.57,150.92 C409.29,153.44 411.08,158.65 412.57,162.50 C417.49,175.30 420.18,182.45 422.15,188.00 C423.23,191.02 424.72,194.85 425.48,196.50 C426.23,198.15 427.18,200.85 427.59,202.50 C428.00,204.15 429.61,208.20 431.17,211.50 C432.72,214.80 434.00,218.17 434.00,218.98 C434.00,220.41 439.71,235.64 444.51,247.00 C445.78,250.02 447.71,255.20 448.78,258.50 C449.86,261.80 452.65,269.67 454.98,276.00 C460.81,291.81 465.19,303.78 469.25,315.00 C471.15,320.23 473.03,325.40 473.45,326.50 C473.86,327.60 474.83,330.20 475.60,332.27 C478.47,339.98 476.83,347.05 470.87,352.69 C465.40,357.87 458.94,359.28 451.06,357.02 C442.53,354.57 436.87,344.08 425.66,310.00 C419.25,290.49 415.69,282.44 412.78,280.88 C411.48,280.19 393.68,279.95 359.33,280.17 L 307.82 280.50 L 305.90 282.87 C304.85,284.17 303.05,288.45 301.90,292.37 C300.76,296.29 298.97,301.30 297.94,303.50 C296.91,305.70 295.08,310.88 293.88,315.00 C292.68,319.12 291.14,323.40 290.46,324.50 C289.78,325.60 288.67,328.91 287.99,331.86 C287.30,334.81 284.83,340.88 282.49,345.35 C278.89,352.23 277.57,353.82 273.87,355.71 C268.86,358.27 261.20,358.66 256.45,356.59 ZM 260.84 355.19 C273.65,356.26 279.17,350.62 285.96,329.50 C287.02,326.20 289.96,317.88 292.48,311.00 C295.01,304.12 297.79,296.25 298.65,293.50 C301.28,285.13 301.96,283.58 304.28,280.68 L 306.51 277.88 L 357.50 277.48 C385.55,277.26 410.04,277.42 411.93,277.82 C416.12,278.72 420.13,284.67 422.98,294.19 C424.02,297.66 426.72,305.67 428.99,312.00 C431.25,318.33 433.97,326.02 435.03,329.10 C438.60,339.51 442.75,347.48 446.41,350.97 C449.71,354.11 450.69,354.47 456.93,354.83 L 463.81 355.22 L 468.38 351.00 C471.50,348.13 473.16,345.68 473.61,343.28 C474.45,338.80 471.21,327.12 463.00,305.00 C459.64,295.92 455.04,283.55 452.80,277.50 C445.42,257.63 443.20,251.62 439.54,241.50 C437.54,236.00 435.03,229.59 433.96,227.26 C432.88,224.93 432.00,222.32 432.00,221.47 C432.00,220.62 431.03,218.03 429.84,215.71 C428.65,213.39 426.90,209.02 425.93,206.00 C424.97,202.98 420.32,190.38 415.60,178.00 C410.87,165.62 407.01,155.11 407.01,154.63 C407.00,154.14 405.90,151.22 404.56,148.13 C403.21,145.03 400.89,139.35 399.40,135.50 C394.77,123.52 386.19,112.81 377.64,108.33 C373.80,106.32 364.66,104.00 360.70,104.02 C355.76,104.04 343.47,107.53 340.26,109.82 C331.38,116.14 325.05,126.64 317.54,147.50 C315.56,153.00 313.11,159.30 312.10,161.50 C311.09,163.70 309.48,168.19 308.54,171.47 C307.59,174.75 305.96,179.12 304.92,181.16 C303.87,183.21 301.90,188.18 300.53,192.19 C297.01,202.57 290.35,220.80 285.63,233.00 C276.63,256.24 270.03,273.72 263.17,292.50 C260.95,298.55 257.94,306.65 256.48,310.50 C255.01,314.35 252.24,322.20 250.33,327.95 C246.06,340.76 246.33,343.30 252.65,350.06 C256.22,353.87 257.94,354.95 260.84,355.19 ZM 125.00 362.94 C115.74,362.38 110.48,361.52 104.72,359.59 C100.44,358.17 96.42,357.00 95.79,357.00 C94.15,357.00 79.31,349.27 74.00,345.65 C61.89,337.40 45.99,318.11 38.85,303.00 C34.79,294.41 30.10,280.93 28.91,274.42 C28.32,271.16 26.88,265.12 25.73,261.00 C23.87,254.40 23.63,250.99 23.72,232.50 C23.81,212.51 23.99,210.68 27.37,194.50 C31.01,177.03 34.36,166.95 39.99,156.49 C56.83,125.21 83.23,106.05 115.79,101.48 C139.44,98.16 164.00,101.20 180.00,109.43 C190.83,115.01 198.09,120.20 207.26,128.96 C215.86,137.16 218.45,140.37 221.86,146.96 C227.15,157.20 227.40,162.11 222.95,168.58 C214.76,180.47 198.33,179.80 189.90,167.23 C184.77,159.59 174.00,149.15 166.96,145.01 C158.90,140.27 144.46,136.54 134.50,136.63 C126.08,136.71 110.39,140.31 103.50,143.75 C84.17,153.39 68.85,178.23 65.73,205.00 C63.19,226.75 64.91,261.18 68.99,270.17 C70.07,272.55 70.97,275.49 70.98,276.71 C71.01,279.91 78.84,294.65 84.18,301.57 C91.99,311.67 98.20,316.40 110.50,321.59 C119.05,325.20 120.15,325.41 132.49,325.80 C146.03,326.23 153.08,325.26 160.47,321.96 C162.69,320.97 165.95,319.62 167.73,318.96 C172.00,317.39 185.28,304.33 187.96,299.07 C190.43,294.24 191.93,292.68 198.35,288.25 C207.82,281.72 219.06,285.30 224.59,296.60 C228.09,303.75 227.53,309.44 222.43,318.55 C216.70,328.80 201.87,343.55 191.67,349.14 C191.03,349.49 188.13,351.16 185.24,352.85 C182.35,354.54 178.08,356.42 175.74,357.01 C173.41,357.61 169.45,358.95 166.95,359.99 C162.91,361.67 159.06,362.19 142.00,363.38 C139.52,363.55 131.88,363.35 125.00,362.94 ZM 122.00 359.95 C137.41,361.82 151.33,360.67 168.77,356.11 C194.94,349.25 223.89,322.56 223.98,305.21 C224.02,296.23 216.46,288.00 208.16,288.00 C202.88,288.00 193.99,293.88 190.92,299.40 C189.67,301.65 185.46,306.81 181.57,310.85 C169.50,323.40 155.33,329.00 135.62,329.00 C96.81,329.00 70.82,302.36 63.06,254.64 C60.11,236.46 60.33,221.99 63.93,198.85 C67.37,176.75 82.78,152.49 99.48,142.89 C114.03,134.53 136.29,131.61 151.67,136.05 C167.84,140.71 181.35,150.26 190.16,163.24 C195.27,170.77 200.24,174.07 206.63,174.21 C212.73,174.35 216.86,172.25 220.32,167.27 C224.05,161.88 223.87,156.35 219.70,148.39 C210.54,130.90 188.20,113.92 165.50,107.19 C143.28,100.60 113.69,102.18 91.50,111.12 C70.38,119.64 53.87,135.42 42.06,158.39 C36.55,169.10 31.03,185.94 29.96,195.32 C29.45,199.82 28.36,208.23 27.53,214.00 C25.42,228.81 25.62,237.01 28.59,256.97 C33.25,288.36 40.69,306.23 57.83,327.19 C72.20,344.77 95.70,356.76 122.00,359.95 ZM 401.70 244.40 C400.50,246.04 397.35,246.22 361.92,246.66 C323.76,247.13 323.42,247.12 320.72,245.00 C319.22,243.82 318.00,242.22 318.00,241.45 C318.00,239.81 322.12,227.33 324.58,221.50 C325.50,219.30 327.70,213.45 329.46,208.50 C331.21,203.55 335.68,191.40 339.39,181.50 C343.09,171.60 347.28,160.35 348.70,156.50 C352.40,146.42 354.91,142.28 358.15,140.94 C364.64,138.25 369.30,145.29 378.05,171.00 C381.27,180.48 385.91,193.48 391.43,208.50 C393.46,214.00 396.03,221.20 397.16,224.50 C398.29,227.80 400.07,232.61 401.11,235.19 C403.35,240.73 403.43,242.03 401.70,244.40 ZM 399.44 241.65 C400.07,240.67 399.85,238.89 398.79,236.34 C397.91,234.23 396.28,229.80 395.17,226.50 C391.79,216.45 387.18,203.72 386.14,201.55 C385.60,200.42 384.05,196.12 382.69,192.00 C381.33,187.88 378.57,180.00 376.55,174.50 C374.53,169.00 372.49,163.27 372.01,161.78 C370.60,157.29 364.98,146.64 362.91,144.51 C358.31,139.79 354.84,146.26 340.10,187.00 C338.01,192.77 334.60,202.00 332.51,207.50 C327.90,219.66 321.00,239.24 321.00,240.18 C321.00,240.55 321.59,241.45 322.32,242.18 C324.39,244.25 398.11,243.74 399.44,241.65 Z" fill="rgb(98,98,95)"/>
<path d="M 260.84 355.19 C257.94,354.95 256.22,353.87 252.65,350.06 C246.33,343.30 246.06,340.76 250.33,327.95 C252.24,322.20 255.01,314.35 256.48,310.50 C257.94,306.65 260.95,298.55 263.17,292.50 C270.03,273.72 276.63,256.24 285.63,233.00 C290.35,220.80 297.01,202.57 300.53,192.19 C301.90,188.18 303.87,183.21 304.92,181.16 C305.96,179.12 307.59,174.75 308.54,171.47 C309.48,168.19 311.09,163.70 312.10,161.50 C313.11,159.30 315.56,153.00 317.54,147.50 C325.05,126.64 331.38,116.14 340.26,109.82 C343.47,107.53 355.76,104.04 360.70,104.02 C364.66,104.00 373.80,106.32 377.64,108.33 C386.19,112.81 394.77,123.52 399.40,135.50 C400.89,139.35 403.21,145.03 404.56,148.13 C405.90,151.22 407.00,154.14 407.01,154.63 C407.01,155.11 410.87,165.62 415.60,178.00 C420.32,190.38 424.97,202.98 425.93,206.00 C426.90,209.02 428.65,213.39 429.84,215.71 C431.03,218.03 432.00,220.62 432.00,221.47 C432.00,222.32 432.88,224.93 433.96,227.26 C435.03,229.59 437.54,236.00 439.54,241.50 C443.20,251.62 445.42,257.63 452.80,277.50 C455.04,283.55 459.64,295.92 463.00,305.00 C471.21,327.12 474.45,338.80 473.61,343.28 C473.16,345.68 471.50,348.13 468.38,351.00 L 463.81 355.22 L 456.93 354.83 C450.69,354.47 449.71,354.11 446.41,350.97 C442.75,347.48 438.60,339.51 435.03,329.10 C433.97,326.02 431.25,318.33 428.99,312.00 C426.72,305.67 424.02,297.66 422.98,294.19 C420.13,284.67 416.12,278.72 411.93,277.82 C410.04,277.42 385.55,277.26 357.50,277.48 L 306.51 277.88 L 304.28 280.68 C301.96,283.58 301.28,285.13 298.65,293.50 C297.79,296.25 295.01,304.12 292.48,311.00 C289.96,317.88 287.02,326.20 285.96,329.50 C279.17,350.62 273.65,356.26 260.84,355.19 ZM 254.45 348.61 L 258.89 353.25 L 265.13 352.80 C271.02,352.37 271.57,352.11 275.10,348.01 C277.15,345.63 279.39,341.62 280.07,339.09 C280.75,336.57 281.67,334.03 282.10,333.46 C282.54,332.89 283.33,330.64 283.87,328.46 C284.41,326.28 287.17,318.20 290.01,310.50 C292.85,302.80 295.84,294.48 296.67,292.00 C299.18,284.44 302.24,278.09 304.27,276.25 C306.06,274.64 310.35,274.48 358.85,274.21 C387.81,274.05 412.53,274.18 413.79,274.49 C416.64,275.20 424.00,286.29 424.01,289.91 C424.02,291.33 425.14,294.91 426.51,297.85 C427.88,300.79 429.00,303.78 429.00,304.49 C429.00,305.21 430.80,310.28 433.00,315.76 C435.20,321.24 437.00,326.21 437.00,326.80 C437.00,329.96 443.66,344.11 446.97,347.98 C450.79,352.45 450.82,352.46 457.47,352.48 C463.88,352.50 464.25,352.36 467.07,349.00 C468.68,347.08 470.28,344.44 470.63,343.14 C471.35,340.51 468.54,324.87 466.77,321.61 C466.15,320.45 463.97,314.77 461.95,309.00 C459.92,303.23 457.57,296.92 456.72,295.00 C455.88,293.08 453.72,287.45 451.93,282.50 C450.13,277.55 447.84,271.61 446.83,269.30 C445.83,267.00 445.00,264.64 445.00,264.07 C445.00,263.51 443.90,260.22 442.56,256.77 C441.21,253.32 438.90,247.12 437.42,243.00 C435.94,238.88 434.09,234.02 433.30,232.22 C432.52,230.42 431.05,226.59 430.03,223.72 C427.89,217.68 420.50,198.11 415.98,186.50 C414.26,182.10 412.17,176.48 411.32,174.00 C410.47,171.52 408.93,167.67 407.89,165.43 C406.85,163.20 406.00,160.80 406.00,160.10 C406.00,156.80 394.66,130.06 390.54,123.65 C382.18,110.67 369.38,105.47 352.82,108.35 C348.70,109.07 344.42,110.29 343.31,111.08 C335.11,116.84 327.91,126.20 324.53,135.50 C319.80,148.52 318.24,152.69 317.22,155.00 C316.61,156.38 314.69,161.55 312.94,166.50 C311.20,171.45 308.97,177.52 307.98,180.00 C302.66,193.35 301.72,195.88 300.50,200.00 C299.77,202.48 298.05,207.43 296.67,211.00 C295.30,214.57 292.99,220.65 291.54,224.50 C285.82,239.69 285.03,241.77 282.00,249.50 C280.27,253.90 278.17,259.52 277.32,262.00 C276.47,264.48 274.93,268.33 273.89,270.57 C272.85,272.80 272.00,275.21 272.00,275.91 C272.00,276.62 271.36,278.62 270.57,280.35 C268.64,284.61 264.34,295.91 263.49,299.00 C263.11,300.38 261.77,303.98 260.52,307.00 C254.33,321.96 250.00,335.78 250.00,340.60 C250.00,343.22 250.98,344.99 254.45,348.61 ZM 122.00 359.95 C95.70,356.76 72.20,344.77 57.83,327.19 C40.69,306.23 33.25,288.36 28.59,256.97 C25.62,237.01 25.42,228.81 27.53,214.00 C28.36,208.23 29.45,199.82 29.96,195.32 C31.03,185.94 36.55,169.10 42.06,158.39 C53.87,135.42 70.38,119.64 91.50,111.12 C113.69,102.18 143.28,100.60 165.50,107.19 C188.20,113.92 210.54,130.90 219.70,148.39 C223.87,156.35 224.05,161.88 220.32,167.27 C216.86,172.25 212.73,174.35 206.63,174.21 C200.24,174.07 195.27,170.77 190.16,163.24 C181.35,150.26 167.84,140.71 151.67,136.05 C136.29,131.61 114.03,134.53 99.48,142.89 C82.78,152.49 67.37,176.75 63.93,198.85 C60.33,221.99 60.11,236.46 63.06,254.64 C70.82,302.36 96.81,329.00 135.62,329.00 C155.33,329.00 169.50,323.40 181.57,310.85 C185.46,306.81 189.67,301.65 190.92,299.40 C193.99,293.88 202.88,288.00 208.16,288.00 C216.46,288.00 224.02,296.23 223.98,305.21 C223.89,322.56 194.94,349.25 168.77,356.11 C151.33,360.67 137.41,361.82 122.00,359.95 ZM 119.00 356.42 C129.82,358.44 143.56,358.32 154.84,356.10 C160.15,355.06 166.44,353.92 168.80,353.58 C173.67,352.88 189.80,344.69 197.46,339.03 C203.58,334.51 212.02,325.44 216.77,318.30 C219.55,314.11 220.33,311.82 220.75,306.57 C221.22,300.64 221.03,299.73 218.65,296.60 C215.50,292.48 210.43,290.58 205.01,291.50 C199.88,292.37 196.88,294.82 191.82,302.27 C186.01,310.83 175.56,320.69 168.56,324.22 C146.91,335.15 122.11,334.79 101.00,323.22 C92.30,318.46 79.79,305.65 74.18,295.76 C69.99,288.38 65.77,278.18 63.94,271.00 C59.29,252.81 58.79,248.58 58.83,228.00 C58.86,212.15 59.21,206.53 60.40,203.20 C61.25,200.84 62.25,196.57 62.62,193.70 C63.37,187.94 67.40,177.13 71.65,169.48 C78.05,157.99 89.76,145.48 98.99,140.29 C104.26,137.32 116.34,133.07 122.50,132.01 C129.01,130.89 141.31,130.88 147.00,132.00 C152.67,133.12 164.26,137.14 166.10,138.63 C166.87,139.24 168.97,140.50 170.77,141.41 C175.55,143.84 187.31,155.27 192.48,162.53 C196.00,167.46 197.95,169.20 201.48,170.55 C209.72,173.69 215.60,171.28 219.19,163.26 C220.98,159.26 220.99,158.75 219.47,154.26 C217.30,147.88 214.60,143.67 208.08,136.50 C199.89,127.50 183.73,115.90 177.28,114.41 C175.75,114.05 173.46,113.11 172.19,112.32 C167.89,109.63 146.68,106.00 135.31,106.00 C123.17,106.00 102.55,109.19 97.12,111.90 C95.13,112.90 92.18,114.03 90.56,114.42 C88.94,114.81 86.40,116.00 84.91,117.07 C83.41,118.13 81.75,119.00 81.21,119.00 C79.37,119.00 67.96,128.01 61.87,134.28 C56.31,139.98 54.11,142.96 46.85,154.50 C41.45,163.11 36.26,176.96 33.01,191.46 C30.99,200.45 29.18,233.07 30.10,244.00 C31.59,261.91 33.00,271.97 34.61,276.32 C35.47,278.62 36.76,282.75 37.49,285.50 C42.30,303.67 56.59,325.20 71.98,337.48 C80.98,344.66 97.64,352.95 105.43,354.11 C108.77,354.61 114.88,355.64 119.00,356.42 ZM 402.78 248.44 C400.86,249.79 395.25,250.00 361.53,249.99 C332.08,249.97 321.89,249.66 320.00,248.71 C316.31,246.84 314.50,242.46 315.82,238.61 C316.40,236.90 317.62,233.25 318.52,230.50 C320.14,225.55 322.52,219.55 326.19,211.18 C327.23,208.80 328.34,205.42 328.66,203.68 C328.98,201.93 330.28,198.25 331.55,195.50 C332.82,192.75 334.52,188.48 335.33,186.00 C336.13,183.52 337.99,178.35 339.46,174.50 C340.94,170.65 342.97,165.02 343.99,162.00 C347.72,150.87 351.84,141.94 354.14,140.01 C362.40,133.04 368.74,138.53 376.10,159.00 C380.28,170.63 382.74,177.18 384.84,182.32 C385.48,183.86 386.00,185.79 386.00,186.60 C386.00,187.40 386.73,189.74 387.62,191.78 C389.20,195.41 393.18,206.29 401.06,228.50 C405.62,241.35 406.03,246.16 402.78,248.44 ZM 401.70 244.40 C403.43,242.03 403.35,240.73 401.11,235.19 C400.07,232.61 398.29,227.80 397.16,224.50 C396.03,221.20 393.46,214.00 391.43,208.50 C385.91,193.48 381.27,180.48 378.05,171.00 C369.30,145.29 364.64,138.25 358.15,140.94 C354.91,142.28 352.40,146.42 348.70,156.50 C347.28,160.35 343.09,171.60 339.39,181.50 C335.68,191.40 331.21,203.55 329.46,208.50 C327.70,213.45 325.50,219.30 324.58,221.50 C322.12,227.33 318.00,239.81 318.00,241.45 C318.00,242.22 319.22,243.82 320.72,245.00 C323.42,247.12 323.76,247.13 361.92,246.66 C397.35,246.22 400.50,246.04 401.70,244.40 Z" fill="rgb(187,188,183)"/>
<path d="M 119.00 356.42 C114.88,355.64 108.77,354.61 105.43,354.11 C97.64,352.95 80.98,344.66 71.98,337.48 C56.59,325.20 42.30,303.67 37.49,285.50 C36.76,282.75 35.47,278.62 34.61,276.32 C33.00,271.97 31.59,261.91 30.10,244.00 C29.18,233.07 30.99,200.45 33.01,191.46 C36.26,176.96 41.45,163.11 46.85,154.50 C54.11,142.96 56.31,139.98 61.87,134.28 C67.96,128.01 79.37,119.00 81.21,119.00 C81.75,119.00 83.41,118.13 84.91,117.07 C86.40,116.00 88.94,114.81 90.56,114.42 C92.18,114.03 95.13,112.90 97.12,111.90 C102.55,109.19 123.17,106.00 135.31,106.00 C146.68,106.00 167.89,109.63 172.19,112.32 C173.46,113.11 175.75,114.05 177.28,114.41 C183.73,115.90 199.89,127.50 208.08,136.50 C214.60,143.67 217.30,147.88 219.47,154.26 C220.99,158.75 220.98,159.26 219.19,163.26 C215.60,171.28 209.72,173.69 201.48,170.55 C197.95,169.20 196.00,167.46 192.48,162.53 C187.31,155.27 175.55,143.84 170.77,141.41 C168.97,140.50 166.87,139.24 166.10,138.63 C164.26,137.14 152.67,133.12 147.00,132.00 C141.31,130.88 129.01,130.89 122.50,132.01 C116.34,133.07 104.26,137.32 98.99,140.29 C89.76,145.48 78.05,157.99 71.65,169.48 C67.40,177.13 63.37,187.94 62.62,193.70 C62.25,196.57 61.25,200.84 60.40,203.20 C59.21,206.53 58.86,212.15 58.83,228.00 C58.79,248.58 59.29,252.81 63.94,271.00 C65.77,278.18 69.99,288.38 74.18,295.76 C79.79,305.65 92.30,318.46 101.00,323.22 C122.11,334.79 146.91,335.15 168.56,324.22 C175.56,320.69 186.01,310.83 191.82,302.27 C196.88,294.82 199.88,292.37 205.01,291.50 C210.43,290.58 215.50,292.48 218.65,296.60 C221.03,299.73 221.22,300.64 220.75,306.57 C220.33,311.82 219.55,314.11 216.77,318.30 C212.02,325.44 203.58,334.51 197.46,339.03 C189.80,344.69 173.67,352.88 168.80,353.58 C166.44,353.92 160.15,355.06 154.84,356.10 C143.56,358.32 129.82,358.44 119.00,356.42 ZM 254.45 348.61 C250.98,344.99 250.00,343.22 250.00,340.60 C250.00,335.78 254.33,321.96 260.52,307.00 C261.77,303.98 263.11,300.38 263.49,299.00 C264.34,295.91 268.64,284.61 270.57,280.35 C271.36,278.62 272.00,276.62 272.00,275.91 C272.00,275.21 272.85,272.80 273.89,270.57 C274.93,268.33 276.47,264.48 277.32,262.00 C278.17,259.52 280.27,253.90 282.00,249.50 C285.03,241.77 285.82,239.69 291.54,224.50 C292.99,220.65 295.30,214.57 296.67,211.00 C298.05,207.43 299.77,202.48 300.50,200.00 C301.72,195.88 302.66,193.35 307.98,180.00 C308.97,177.52 311.20,171.45 312.94,166.50 C314.69,161.55 316.61,156.38 317.22,155.00 C318.24,152.69 319.80,148.52 324.53,135.50 C327.91,126.20 335.11,116.84 343.31,111.08 C344.42,110.29 348.70,109.07 352.82,108.35 C369.38,105.47 382.18,110.67 390.54,123.65 C394.66,130.06 406.00,156.80 406.00,160.10 C406.00,160.80 406.85,163.20 407.89,165.43 C408.93,167.67 410.47,171.52 411.32,174.00 C412.17,176.48 414.26,182.10 415.98,186.50 C420.50,198.11 427.89,217.68 430.03,223.72 C431.05,226.59 432.52,230.42 433.30,232.22 C434.09,234.02 435.94,238.88 437.42,243.00 C438.90,247.12 441.21,253.32 442.56,256.77 C443.90,260.22 445.00,263.51 445.00,264.07 C445.00,264.64 445.83,267.00 446.83,269.30 C447.84,271.61 450.13,277.55 451.93,282.50 C453.72,287.45 455.88,293.08 456.72,295.00 C457.57,296.92 459.92,303.23 461.95,309.00 C463.97,314.77 466.15,320.45 466.77,321.61 C468.54,324.87 471.35,340.51 470.63,343.14 C470.28,344.44 468.68,347.08 467.07,349.00 C464.25,352.36 463.88,352.50 457.47,352.48 C450.82,352.46 450.79,352.45 446.97,347.98 C443.66,344.11 437.00,329.96 437.00,326.80 C437.00,326.21 435.20,321.24 433.00,315.76 C430.80,310.28 429.00,305.21 429.00,304.49 C429.00,303.78 427.88,300.79 426.51,297.85 C425.14,294.91 424.02,291.33 424.01,289.91 C424.00,286.29 416.64,275.20 413.79,274.49 C412.53,274.18 387.81,274.05 358.85,274.21 C310.35,274.48 306.06,274.64 304.27,276.25 C302.24,278.09 299.18,284.44 296.67,292.00 C295.84,294.48 292.85,302.80 290.01,310.50 C287.17,318.20 284.41,326.28 283.87,328.46 C283.33,330.64 282.54,332.89 282.10,333.46 C281.67,334.03 280.75,336.57 280.07,339.09 C279.39,341.62 277.15,345.63 275.10,348.01 C271.57,352.11 271.02,352.37 265.13,352.80 L 258.89 353.25 L 254.45 348.61 ZM 402.78 248.44 C406.03,246.16 405.62,241.35 401.06,228.50 C393.18,206.29 389.20,195.41 387.62,191.78 C386.73,189.74 386.00,187.40 386.00,186.60 C386.00,185.79 385.48,183.86 384.84,182.32 C382.74,177.18 380.28,170.63 376.10,159.00 C368.74,138.53 362.40,133.04 354.14,140.01 C351.84,141.94 347.72,150.87 343.99,162.00 C342.97,165.02 340.94,170.65 339.46,174.50 C337.99,178.35 336.13,183.52 335.33,186.00 C334.52,188.48 332.82,192.75 331.55,195.50 C330.28,198.25 328.98,201.93 328.66,203.68 C328.34,205.42 327.23,208.80 326.19,211.18 C322.52,219.55 320.14,225.55 318.52,230.50 C317.62,233.25 316.40,236.90 315.82,238.61 C314.50,242.46 316.31,246.84 320.00,248.71 C321.89,249.66 332.08,249.97 361.53,249.99 C395.25,250.00 400.86,249.79 402.78,248.44 Z" fill="rgb(248,248,241)"/>
</g>
</svg>